# xmcd
#
# Track frame offsets: 
#        150
#        19665
#        35532
#        55716
#        75635
#        89233
#        106297
#        124019
#        140351
#        164327
#        183376
#        208674
#        210678
#        228178
#
# Disc length: 3343 seconds
#
# Revision: 0
# Processed by: cddbd v1.5.2PL0 Copyright (c) Steve Scherf et al.
# Submitted via: ExactAudioCopy v0.95b3
#
DISCID=bb0d0d0e
DTITLE=Billy Hector - Traveler
DYEAR=2009
DGENRE=Blues
TTITLE0=Polly Anne
TTITLE1=Traveler
TTITLE2=Never Let You Down
TTITLE3=Candy
TTITLE4=Last Train Home
TTITLE5=Midnight Buddha
TTITLE6=Wild Heart
TTITLE7=Wasted
TTITLE8=Overloaded
TTITLE9=Blacklight
TTITLE10=Moonlight in Her Eyes
TTITLE11=A Word From Our Sponsor
TTITLE12=Treat Your Daddy Right
TTITLE13=Play So Rough
EXTD=
EXTT0=
EXTT1=
EXTT2=
EXTT3=
EXTT4=
EXTT5=
EXTT6=
EXTT7=
EXTT8=
EXTT9=
EXTT10=
EXTT11=
EXTT12=
EXTT13=
PLAYORDER=
